# xmcd
#
# Track frame offsets: 
#        150
#        13364
#        27754
#        39470
#        54158
#        68431
#        82521
#        95429
#        110228
#        124547
#        138249
#        152728
#        166233
#        181239
#        197421
#        211692
#        223542
#        238602
#        252342
#        268208
#        282762
#        296495
#        311679
#        326880
#        340001
#
# Disc length: 4705 seconds
#
# Revision: 0
# Processed by: cddbd v1.5.2PL0 Copyright (c) Steve Scherf et al.
# Submitted via: ExactAudioCopyFreeDBPlugin 1.0
#
DISCID=5a125f19
DTITLE=Various Artist - Rural Blues the Essential Collection
DYEAR=2008
DGENRE=Blues
TTITLE0=Skip James - I'm So Glad
TTITLE1=Tampa Red - Kingfish Blues
TTITLE2=Bukka White - Aberdeen Mississippi Blues
TTITLE3=Sleepy John Estes - Divin' Duck Blues
TTITLE4=Jack Kelly - Cold Iron Bed
TTITLE5=Leroy Carr - Midnight Hour Blues
TTITLE6=Forest City Joe - Special Delivery Man
TTITLE7=Blind Willie Reynolds - Married Man Blues
TTITLE8=Bo Carter - Sorry Feeling Blues
TTITLE9=Bumble Bee Slim - Dead and Gone Mother
TTITLE10=Kokomo Arnold - The Twelves
TTITLE11=Scrapper Blackwell - Down South Blues
TTITLE12=Frank Stokes - Taint Nobody's Business If I Do Part 2
TTITLE13=Muddy Waters - Country Blues
TTITLE14=Peetie Wheatstraw - Good Whiskey Blues
TTITLE15=Ramblin' Thomas - Lock And Key Blues
TTITLE16=Joe Callicott - Travellin Mama Blues
TTITLE17=Texas Alexander - No More Women Blues
TTITLE18=Willie Walker - Dupree Blues
TTITLE19=Tommy Johnson - Cool Drink Of Water Blues
TTITLE20=Robert Lockwood - Little Boy Blue
TTITLE21=Ishman Bracey - Left Alone Blues
TTITLE22=Peg Leg Howell - Broke and Hungry Blues
TTITLE23=Jesse James - Ramrod
TTITLE24=Memphis Jug Band - Kansas City Blues
EXTD=
EXTT0=
EXTT1=
EXTT2=
EXTT3=
EXTT4=
EXTT5=
EXTT6=
EXTT7=
EXTT8=
EXTT9=
EXTT10=
EXTT11=
EXTT12=
EXTT13=
EXTT14=
EXTT15=
EXTT16=
EXTT17=
EXTT18=
EXTT19=
EXTT20=
EXTT21=
EXTT22=
EXTT23=
EXTT24=
PLAYORDER=
